<svg xmlns="http://www.w3.org/2000/svg" viewBox="0 0 552.4 533.2" enable-background="new 0 0 552.4 533.2"><path stroke="#FECB0D" stroke-width=".5" stroke-miterlimit="22.926" d="M403.4 411.8h-91.1c-2.5 0-5-2.5-5-5v-112.9c0-2.5 2.5-5 5-5h144.6s18-5.5 18-21.8v-51.4c0-31 0-31-23.6-54.6l-36.5-36.5" fill="none"/><path stroke="#95723A" stroke-width=".5" stroke-miterlimit="22.926" d="M327.1 198.4l-47.1 47.1c-11.2 11.2-11.2 11.2-11.2 29.8v8.7c0 2.5 2.5 5 5 5h24.8c2.5 0 5 2.5 5 5v112.9c0 5 3.7 8.7 8.7 8.7h91.2" fill="none"/><path stroke="#A067A8" stroke-width=".5" stroke-miterlimit="22.926" d="M539.3 30.9v139c0 13.6-8.7 19.9-19.9 19.9h-21.1c-12.4 0-19.9 7.4-19.9 19.9v57.599999999999994c0 22.6-11.7 25.4-22.1 25.4h-213.7l-12.4 3.7h-89.2c-19.9 0-19.9 0-32.3 12.4l-91.8 91.8 19.9-19.8" fill="none"/><path stroke="#A067A8" stroke-width=".5" stroke-miterlimit="22.926" d="M539.3 30.9v139c0 13.6-8.7 19.9-19.9 19.9h-21.1c-12.4 0-19.9 7.4-19.9 19.9v57.599999999999994c0 22.6-11.7 25.4-22.1 25.4h-213.7l-12.4 3.7h-89.2c-19.9 0-19.9 0-32.3 12.4l-72 72c-11.2 11.2-11.2 11.2-11.2 29.8v91.8" fill="none"/></svg>