<svg xmlns="http://www.w3.org/2000/svg" width="1240" height="841.89"><path stroke="#04A86E" stroke-miterlimit="22.926" d="M419.452 134.857l-.006 279.259c0 2.834 2.834 5.669 5.669 5.669h248.031c2.834 0 5.67 2.835 5.67 5.669v90.71c0 2.834-2.835 5.669-5.669 5.669l-94.961-.032c-2.834 0-5.669 2.834-5.669 5.669l-.001 46.805c0 21.259 0 21.259 12.756 34.015l164.406 164.38" fill="none"/><path stroke="#04A86E" stroke-miterlimit="22.926" d="M419.452 134.857l-.006 279.259c0 2.834 2.834 5.669 5.669 5.669h248.031c2.834 0 5.67 2.835 5.67 5.669v90.71c0 2.834-2.835 5.669-5.669 5.669l-94.961-.032c-2.834 0-5.669 2.834-5.669 5.669l-.001 46.805c0 21.259 0 21.259 12.756 34.015l97.796 97.796c12.756 12.757 12.756 12.757 34.015 12.757h138.898" fill="none"/><path stroke="#07AA9E" stroke-miterlimit="22.926" d="M1099.762 113.645h-59.528c-35.433-.001-35.433-.001-62.362 26.928l-42.238 42.273c-6.924 6.469-11.619 15.405-11.619 24.342v153.071c0 36.85-.295 36.85-28.347 65.196l-113.387 113.386c-28.648 28.354-28.691 28.354-65.197 28.347h-127.559c-7.087 0-7.087-.034-11.339 4.218l-51.149 51.183c-28.233 28.222-28.894 28.222-66.489 28.222h-53.858c-4.431 0-6.175.065-7.735 1.042-1.379.863-2.186 3.032-2.186 4.627l-.001 103.465c0 11.338 7.087 18.425 18.425 18.425h225.354" fill="none"/><path stroke="#07AA9E" stroke-miterlimit="22.926" d="M1098.344 173.172h-140.315c-17.008 0-34.016 17.007-34.016 34.015v153.071c0 36.85-.295 36.85-28.347 65.196l-113.385 113.387c-28.648 28.354-28.691 28.354-65.197 28.347h-127.559c-7.087 0-7.087-.034-11.339 4.218l-51.149 51.183c-28.233 28.222-28.894 28.222-66.489 28.222h-53.858c-7.087 0-7.087 0-11.339 4.252l-107.716 107.714" fill="none"/><path stroke="#E52629" stroke-miterlimit="22.926" d="M379.761 596.912l52.441-52.401c25.186-25.187 26.818-26.817 26.922-55.91l.007-75.901c0-2.835 2.835-5.669 5.669-5.669h342.993c9.922 0 9.922 0 17.008 7.087l24.682 24.682c5.011 5.011 1.326 12.703 6.338 17.715l70.164 70.108c4.252 4.252 4.252 11.34 0 15.592l-2.824 2.829c-4.252 4.252-11.339 4.252-15.591 0l-2.834-2.836c-4.252-4.252-4.252-11.339 0-15.591l5.659-5.663c2.834-2.835 2.834-7.087 0-9.921" fill="none"/><path stroke="#0D71B9" stroke-miterlimit="22.926" d="M867.889 584.763l-.002-49.607c.248-22.331.281-22.407 13.758-36.435l1.39-1.385c2.004-2.005 2.004-6.013 0-8.018l-66.737-66.697c-2.835-2.835-2.835-2.835-8.504-2.835l-106.3-.001c-5.669 0-9.921 4.252-9.921 9.921v86.458c0 11.338-7.087 18.426-18.426 18.426h-171.497c-8.504 0-14.173-5.67-14.173-14.175l-.004-38.295c0-2.835 2.839-5.674 5.673-5.674l24.095-.001c2.834 0 5.669-2.834 5.669-5.669v-36.818c0-2.834-2.834-5.669-5.669-5.669l-92.126.001c-5.669 0-9.921-4.252-9.921-9.921v-25.512s0-19.843-12.756-32.599l-5.793-5.793c-20.926-20.938-22.273-22.878-22.545-48.565l-.052-4.757" fill="none"/><path stroke="#A067A8" stroke-miterlimit="22.926" d="M804.958 103.723v158.74c0 15.591-9.921 22.678-22.677 22.678h-24.096c-14.172 0-22.676 8.504-22.676 22.677v85.039c0 5.669-4.252 9.921-9.922 9.921l-259.371.001-14.173 4.252h-102.046c-22.677 0-22.677 0-36.85 14.173l-104.886 104.853 22.682-22.649c-12.756 12.756-12.756 12.756-12.756 34.017l-.004 104.854" fill="none"/><path stroke="#95723A" stroke-miterlimit="22.926" d="M562.597 295.062l-53.858 53.858c-12.756 12.756-12.756 12.756-12.756 34.016l-.001 9.922c0 2.834 2.835 5.669 5.669 5.669h28.347c2.834 0 5.669 2.835 5.669 5.669v128.978c0 5.669 4.252 9.921 9.921 9.921l104.236-.001" fill="none"/><path stroke="#83BD47" stroke-miterlimit="22.926" d="M151.572 470.81h97.795c19.843 0 19.843 0 32.599-12.756l25.513-25.513c12.756-12.756 12.756-12.756 34.015-12.756h70.866l14.173 4.252h90.709c5.669 0 9.921 4.252 9.921 9.921v36.852c0 2.834 2.835 5.669 5.669 5.669h248.032c14.173 0 22.677-8.504 22.677-22.677v-97.796c0-2.834-2.834-5.669-5.669-5.669h-52.442c-2.834 0-5.668-2.835-5.668-5.669v-21.26" fill="none"/><path stroke="#25BDEF" stroke-miterlimit="22.926" d="M249.084 384.069h34.016c21.26 0 21.26 0 34.016 12.756l71.149 71.15c12.756 12.756 12.756 12.756 34.016 12.756l.001-.001h267.874c2.834 0 5.669-2.834 5.669-5.669v-45.355c0-2.834 2.835-5.669 5.669-5.669l32.599.001c2.834 0 5.67-2.835 5.67-5.67v-66.614c0-2.834 2.834-5.669 5.668-5.669h52.441c2.834 0 5.669-2.834 5.669-5.669l-.001-32.975" fill="none"/><path stroke="#A01A4D" stroke-miterlimit="22.926" d="M280.548 764.195l161.575-161.575c26.929-26.929 26.929-26.929 62.363-26.929h53.812c5.714 0 9.967-4.252 9.967-9.922v-25.545c0-5.669 4.252-9.921 9.921-9.921l94.96.034c8.505 0 14.174-5.67 14.174-14.174v-86.458c0-8.504 5.669-14.173 14.173-14.173h106.3c7.086 0 7.086 0 11.338 4.252l27.004 26.998c4.008 4.009 10.021 4.009 14.03 0l4.32-4.319c14.173-14.174 14.173-14.174 36.851-14.174l41.102-.001c21.261 0 21.261 0 34.017-12.756l79.37-79.37c29.764-29.764 29.764-29.764 29.764-68.031l-.009-65.197" fill="none"/><path stroke="#A01A4D" stroke-miterlimit="22.926" d="M643.383 782.62h-228.189c-14.173 0-22.677-8.504-22.677-22.677v-100.63c0-7.09 0-7.086 4.251-11.339l45.354-45.354c26.929-26.929 26.929-26.929 62.363-26.929h53.812c5.714 0 9.967-4.252 9.967-9.922v-25.545c0-5.669 4.252-9.921 9.921-9.921l94.96.034c8.505 0 14.174-5.67 14.174-14.174v-86.458c0-8.504 5.669-14.173 14.173-14.173h106.3c7.086 0 7.086 0 11.338 4.252l27.004 26.998c4.008 4.009 10.021 4.009 14.03 0l4.32-4.319c14.173-14.174 14.173-14.174 36.851-14.174l41.102-.001c21.261 0 21.261 0 34.017-12.756l79.37-79.37c29.764-29.764 29.764-29.764 29.764-68.031l-.009-65.197" fill="none"/><path stroke="#FFDD09" stroke-miterlimit="22.926" d="M919.762 69.707v290.552c0 35.433 0 35.433-26.929 62.362l-113.387 113.386c-26.929 26.929-26.929 26.93-62.362 26.929h-134.646" fill="none"/><path stroke="#8D5DA3" stroke-miterlimit="22.926" d="M907.005 227.03v-68.032c0-39.684-36.85-80.787-75.118-80.787l-338.74-.001c-36.581.012-36.592.023-65.197 28.348l-8.504 8.503c-29.764 29.764-29.764 29.764-68.031 29.764h-24.095c-5.669 0-9.921-4.252-9.921-9.921v-22.678" fill="none"/><path stroke="#F29796" stroke-miterlimit="22.926" d="M1179.13 749.455v-56.126c0-22.678 0-22.678-14.173-36.851l-216.85-216.85c-10.521-10.521-24.024-15.55-37.371-15.627l-9.401.035c-24.094 0-24.094 0-39.685 15.592l-4.487 4.486c-2.005 2.005-6.014 2.005-8.019 0l-27.178-27.165c-5.67-5.669-5.67-5.669-14.174-5.669l-443.622.001c-21.26 0-21.26 0-34.016-12.756l-130.68-130.137c-2.834-2.835-7.087-2.835-9.922 0l-69.161 69.194" fill="none"/><path stroke="#F29796" stroke-miterlimit="22.926" d="M559.761 555.849v-2.835c0-2.834-2.835-5.669-5.669-5.669h-8.504c-8.504 0-14.173-5.669-14.173-14.173v-99.214c0-8.504-5.67-18.425-18.426-18.425h-150.236c-21.26 0-21.26 0-34.016-12.756l-131.812-131.81c-2.834-2.835-2.834-7.087 0-9.922l103.465-103.464c12.756-12.756 12.756-12.756 12.756-34.016v-11.339" fill="none"/><path stroke="#F29796" stroke-miterlimit="22.926" d="M313.146 112.227v11.339c0 21.26 0 21.26-12.756 34.016l-103.464 103.463c-2.834 2.835-2.834 7.087 0 9.922l131.812 131.81c12.756 12.756 12.756 12.756 34.016 12.756h310.394c5.67 0 9.922 4.252 9.922 9.921v90.71c0 5.669-4.252 9.922-9.922 9.922l-94.96-.034c-8.504 0-14.174 5.67-14.174 14.174v21.259c0 2.868-2.835 5.703-5.669 5.67l-52.44.032c-35.434.001-35.434.001-62.362-26.928l-187.09-187.088c-11.204-11.204-12.567-12.567-12.733-27.141-.009-.883-.021-1.205-.021-1.205 0-7.087 0-7.087-4.252-11.339" fill="none"/><path stroke="#F39323" stroke-miterlimit="22.926" d="M872.139 584.762v-49.606c0-20.429.002-21.228 11.319-32.577l1.425-1.468c2.834-2.834 7.086-2.834 9.92 0l28.347 28.347c2.835 2.835 2.835 7.088 0 9.923l-2.824 2.828c-2.834 2.834-7.086 2.834-9.921 0l-2.835-2.835c-2.834-2.835-2.834-7.087 0-9.921l2.825-2.829c2.834-2.835 2.834-7.087 0-9.921" fill="none"/><path stroke="#F7B49C" stroke-miterlimit="22.926" d="M1179.131 660.73v-130.394c0-38.267 0-38.267-29.764-68.03l-208.347-208.348c-11.359-11.36-12.603-12.603-12.738-27.758" fill="none"/><path stroke="#2C2965" stroke-miterlimit="22.926" d="M1072.829 575.658l-2.835-2.835c-2.834-2.834-7.086-2.834-9.921 0l-22.674 22.71c-29.765 29.765-29.765 29.765-29.765 68.032v87.189" fill="none"/></svg>